HIERARCHY
ROOT Hips
{
	OFFSET -0.179506 -22.333345 2.821913
	CHANNELS 6 Xposition Yposition Zposition Zrotation Yrotation Xrotation 
	JOINT LeftUpLeg
	{
		OFFSET 6.951974 -9.140623 -0.681533
		CHANNELS 3 Zrotation Yrotation Xrotation
		JOINT LeftLeg
		{
			OFFSET 3.427654 -37.519855 -0.449580
			CHANNELS 3 Zrotation Yrotation Xrotation
			JOINT LeftFoot
			{
				OFFSET -1.359570 -39.796059 -4.369333
				CHANNELS 3 Zrotation Yrotation Xrotation
				JOINT LeftToe
				{
					OFFSET 2.635814 -5.579078 11.928840
					CHANNELS 3 Zrotation Yrotation Xrotation
					End Site
					{
						OFFSET 0.000000 0.000000 0.000000
					}
				}
			}
		}
	}
	JOINT RightUpLeg
	{
		OFFSET -6.767048 -9.052170 -0.431982
		CHANNELS 3 Zrotation Yrotation Xrotation
		JOINT RightLeg
		{
			OFFSET -3.829005 -38.256897 -0.885003
			CHANNELS 3 Zrotation Yrotation Xrotation
			JOINT RightFoot
			{
				OFFSET 1.577377 -39.841461 -4.231180
				CHANNELS 3 Zrotation Yrotation Xrotation
				JOINT RightToe
				{
					OFFSET -2.537174 -4.814398 12.334795
					CHANNELS 3 Zrotation Yrotation Xrotation
					End Site
					{
						OFFSET 0.000000 0.000000 0.000000
					}
				}
			}
		}
	}
	JOINT Spine
	{
		OFFSET -0.253288 10.896323 -2.669631
		CHANNELS 3 Zrotation Yrotation Xrotation
		JOINT Spine1
		{
			OFFSET 0.548704 13.518043 0.109247
			CHANNELS 3 Zrotation Yrotation Xrotation
			JOINT Spine2
			{
				OFFSET 0.145701 5.292222 2.542457
				CHANNELS 3 Zrotation Yrotation Xrotation
				JOINT Neck
				{
					OFFSET -0.277840 21.387037 -4.285703
					CHANNELS 3 Zrotation Yrotation Xrotation
					JOINT Head
					{
						OFFSET 0.515184 6.496960 5.134897
						CHANNELS 3 Zrotation Yrotation Xrotation
						End Site
						{
							OFFSET 0.000000 0.000000 0.000000
						}
					}
				}
				JOINT LeftShoulder
				{
					OFFSET 7.884473 12.174932 -3.408961
					CHANNELS 3 Zrotation Yrotation Xrotation
					JOINT LeftArm
					{
						OFFSET 9.097692 3.046888 -0.886815
						CHANNELS 3 Zrotation Yrotation Xrotation
						JOINT LeftForeArm
						{
							OFFSET 25.961220 -1.277207 -2.745643
							CHANNELS 3 Zrotation Yrotation Xrotation
							JOINT LeftHand
							{
								OFFSET 24.923361 0.898606 -0.117091
								CHANNELS 3 Zrotation Yrotation Xrotation
								End Site
								{
									OFFSET 0.000000 0.000000 0.000000
								}
							}
						}
					}
				}
				JOINT RightShoulder
				{
					OFFSET -8.175920 11.883285 -3.861528
					CHANNELS 3 Zrotation Yrotation Xrotation
					JOINT RightArm
					{
						OFFSET -9.601238 3.255117 -0.914307
						CHANNELS 3 Zrotation Yrotation Xrotation
						JOINT RightForeArm
						{
							OFFSET -25.374195 -1.332924 -2.140099
							CHANNELS 3 Zrotation Yrotation Xrotation
							JOINT RightHand
							{
								OFFSET -25.529810 0.777228 -0.555919
								CHANNELS 3 Zrotation Yrotation Xrotation
								End Site
								{
									OFFSET 0.000000 0.000000 0.000000
								}
							}
						}
					}
				}
			}
		}
	}
}
MOTION
Frames: 14
Frame Time: 0.033333
-0.179506 103.010452 2.821913 162.446736 -84.234565 -166.697307 -2.486897 -2.011890 6.932414 0.532308 -6.470755 -3.924105 1.545121 4.334276 -9.303794 0.929929 1.292177 2.677895 2.555492 -3.023789 5.989202 -1.187327 -5.001999 -2.639142 0.874268 -7.381454 -9.345128 2.803587 -2.166758 0.146269 -2.017498 4.512606 1.995460 2.314975 -0.528987 5.735140 -3.457010 1.005012 -4.579002 -1.034616 0.102307 3.204601 -0.665448 -3.346958 5.414590 -24.114290 3.113776 2.664062 -57.135857 -11.016729 11.058126 5.477682 -14.397747 4.545603 -10.419604 -8.399587 3.395843 19.309319 4.196777 1.792221 61.789703 1.588657 19.659925 -5.031875 21.226781 12.118248 13.143804 3.526328 3.121341 
-0.001079 103.022255 2.738194 160.612274 -84.413962 -164.973276 -2.577942 -1.903832 7.074212 0.681710 -6.436954 -4.257434 1.494809 4.084546 -9.004985 0.924243 1.346884 2.726013 2.579221 -3.167903 6.097721 -1.282575 -5.209142 -2.871487 1.026880 -7.455952 -9.275978 2.828783 -2.216619 0.260668 -1.986916 4.481099 2.172180 2.305317 -0.535590 5.853646 -3.409699 1.023030 -4.884948 -1.093261 0.014852 3.477865 -0.587482 -3.110245 5.326127 -24.320470 2.884187 2.646603 -57.001357 -11.228950 10.892231 5.589076 -14.041503 4.028981 -10.971528 -8.561907 3.760890 19.481805 4.385100 1.974067 61.637202 1.629160 19.468378 -5.271792 21.241370 11.724045 14.099831 3.541195 3.571185 
0.170819 103.042496 2.734640 160.113359 -84.577207 -164.420951 -2.622143 -1.825097 6.757810 0.807849 -6.429505 -4.040698 1.456705 4.003238 -8.965985 0.921064 1.373989 2.705605 2.683865 -2.996682 5.464894 -1.423155 -5.221758 -2.025187 0.932390 -7.765148 -9.477452 2.884306 -2.242363 0.329535 -1.968509 4.278901 2.323604 2.350684 -0.568862 5.826626 -3.325350 1.030429 -5.040586 -1.160089 -0.074046 3.743029 -0.576692 -2.962419 5.214133 -24.060670 2.632511 2.515141 -56.466004 -11.423925 10.597892 5.735383 -14.165604 3.037190 -11.309719 -8.888798 3.930023 19.400933 4.502622 2.001090 61.366673 1.644591 19.292247 -5.484019 21.563767 11.157113 14.883769 3.652647 3.609411 
0.498887 103.083366 2.769517 160.880865 -84.572870 -165.221716 -2.596125 -1.879487 6.264731 0.812439 -6.488721 -3.493190 1.325294 4.212674 -8.974915 1.061744 1.362025 2.674909 2.771373 -2.414363 4.424101 -1.516824 -4.869466 -0.410778 0.684869 -8.264819 -9.733211 3.061319 -2.291107 0.354144 -1.947450 3.943976 2.645943 2.395268 -0.619454 5.592683 -3.230184 1.023400 -4.959265 -1.149789 0.094502 3.762511 -0.592617 -2.827400 5.336239 -23.462610 2.366674 2.308081 -55.617612 -11.792957 10.175431 5.816895 -14.455031 2.448847 -11.063036 -9.178507 3.941939 19.034596 4.451003 1.786011 61.127675 1.740522 19.068780 -5.728477 22.004023 10.633011 15.120110 3.671848 2.994682 
0.819187 103.149765 2.639708 161.877610 -84.538600 -166.172950 -2.492004 -2.290522 5.518852 0.844245 -6.980461 -2.586873 1.032147 4.985386 -9.012426 1.357336 1.396467 2.474154 3.006323 -1.125085 2.007705 -1.683532 -4.198245 3.720130 0.032024 -9.331556 -10.531407 3.414067 -2.368878 0.211452 -2.184049 3.426300 3.546359 2.407584 -0.725828 4.800593 -3.036884 0.951055 -4.372271 -1.327450 0.535958 3.417688 -0.626996 -2.499893 5.103406 -22.081205 2.081049 2.020350 -53.909760 -12.489235 8.883736 6.333642 -15.550948 0.370056 -9.910540 -10.031270 3.208432 18.327909 4.306923 1.269322 60.915126 1.651659 18.843932 -6.038907 23.626249 10.115950 15.280060 3.756938 1.994153 
1.716403 103.236191 2.611360 161.973342 -84.966598 -166.627979 -2.322067 -2.881648 4.394992 0.740256 -8.046757 -0.991951 0.522083 5.874531 -9.109103 2.053621 1.370856 2.053018 3.179246 0.482577 -2.225119 -1.779055 -3.775213 11.175392 -0.430461 -10.811775 -10.980727 3.760386 -2.373568 0.165873 -2.481899 2.720125 4.937998 2.309113 -1.106514 3.615964 -2.763119 0.872755 -3.677941 -1.706020 1.340485 2.897712 -0.542426 -1.928229 4.384176 -20.747627 1.629215 1.580769 -52.316948 -13.027975 7.628148 6.615994 -16.864753 -1.473605 -8.370621 -10.546032 2.609902 17.414344 4.218039 0.528087 60.956015 1.473337 18.939874 -5.955882 25.810307 10.913726 15.454727 3.564059 2.467878 
2.929838 103.215767 2.448825 162.360610 -85.006263 -167.459423 -1.959196 -3.760126 2.621751 0.011351 -10.157302 1.617954 -0.054665 7.726155 -9.554779 3.402707 1.196444 1.399206 2.735866 2.431517 -8.955647 -1.097819 -3.310731 22.123516 0.320067 -10.774973 -9.357971 3.814764 -2.202058 0.239552 -2.817184 1.990694 6.215603 2.283301 -1.682077 2.863966 -2.499657 0.795391 -3.025874 -2.323681 2.620261 2.318349 -0.651315 -1.087272 3.458846 -19.507982 0.680634 1.190501 -50.237029 -13.744487 6.336585 6.905622 -17.192618 -3.682410 -5.135090 -10.506781 1.634951 16.715162 4.293580 -0.339832 60.821991 1.604605 19.572238 -5.624123 28.098951 12.186657 14.396823 3.254510 3.128065 
3.436340 102.901810 1.925002 160.402669 -84.874897 -165.969014 -1.676903 -4.761388 1.163363 -1.209789 -13.460946 4.870039 0.065041 9.894663 -10.943341 5.218693 0.997601 0.543099 1.527120 4.304600 -18.512728 0.309439 -3.696708 38.675490 1.794575 -8.306339 -6.957953 3.996209 -1.835583 0.527344 -3.228566 0.865410 8.137342 2.368841 -1.939722 1.727338 -2.247910 0.550393 -2.184696 -2.862283 4.337711 1.365444 -1.240967 -0.373879 2.348922 -18.199116 -0.491972 0.908853 -48.183786 -14.051285 5.519614 6.554598 -17.424134 -4.925173 -2.531058 -10.578912 -0.281530 16.199897 4.531756 -1.150469 60.390989 1.915500 20.583547 -5.340869 29.748350 13.372425 14.138429 3.451143 2.970467 
3.814806 102.142159 2.055689 155.132991 -85.016740 -161.636264 -1.734716 -5.524427 0.145021 -3.063296 -15.759920 8.731325 0.596356 9.666444 -13.777939 6.650799 0.831836 -0.343166 -0.071789 5.222307 -26.609707 1.672419 -5.125981 53.444454 1.923464 -7.820395 -5.279482 4.465480 -1.481715 0.675109 -3.787364 -0.076373 10.002343 2.714060 -1.926384 1.244852 -2.274718 0.265484 -1.902781 -2.872820 5.745634 0.737955 -1.562760 0.356816 1.562925 -17.221549 -1.705857 0.869130 -46.712253 -14.585677 5.467574 5.831231 -18.152007 -4.511515 -2.158809 -10.272412 -1.547056 16.114246 4.582214 -1.460926 59.445786 2.200235 20.803275 -5.631479 31.119541 12.987480 14.801396 3.606932 1.950971 
4.149641 101.136673 2.285993 150.404635 -84.776778 -158.084079 -1.801816 -5.764901 -1.258000 -5.213840 -16.022368 14.335355 1.384928 8.391068 -17.202958 7.579275 0.633040 -1.126573 -1.652835 5.155687 -31.843214 2.153681 -6.573056 64.509960 1.663069 -7.803379 -3.676844 4.864361 -1.081158 0.684307 -4.286712 -0.474727 11.621374 3.048631 -2.176895 1.484487 -2.472545 0.147397 -2.062041 -2.756210 6.700977 0.558988 -1.668885 1.031547 0.596132 -16.640045 -2.836820 1.016798 -45.379804 -15.254380 5.218823 5.351331 -18.828100 -4.093592 -1.927010 -9.651993 -2.121673 16.321088 4.584501 -1.330767 58.563343 2.246125 20.546351 -5.936875 32.347019 12.160391 14.327457 3.623778 1.691993 
4.364751 100.169365 2.488779 144.765469 -84.721434 -153.703726 -1.772079 -5.852579 -2.992165 -7.773679 -15.599391 20.745411 2.419196 7.306352 -20.253188 8.308752 0.429434 -1.908296 -2.966219 4.752581 -34.710891 2.187283 -7.413666 72.688135 1.133883 -7.944751 -2.523123 5.414023 -0.705889 0.701561 -4.800736 -0.501227 13.067872 3.333367 -2.465478 1.943200 -2.806475 0.130069 -2.321137 -2.495695 7.173074 0.271264 -1.667461 1.322125 -0.209479 -16.325750 -3.748626 1.261227 -44.044313 -15.866197 4.907455 4.889422 -19.528718 -3.495429 -1.172808 -9.438083 -2.391654 16.564320 4.540496 -1.303498 58.025520 1.944314 20.342816 -6.205087 33.000333 11.290771 13.074544 3.961065 2.041830 
4.683579 99.509422 1.711950 137.276068 -84.519071 -147.447947 -1.700499 -5.872201 -4.459110 -9.456567 -14.556080 26.025375 3.132367 6.864961 -21.559625 8.750307 0.224998 -2.484292 -3.973499 4.187232 -35.812263 2.191794 -7.427425 77.652175 0.297190 -8.200298 -2.145835 5.888878 -0.424645 0.572182 -5.153812 -0.331054 14.155343 3.487898 -2.673619 2.298011 -3.222900 0.249686 -2.648248 -2.222296 7.316367 -0.077124 -1.353606 1.719479 -1.018258 -15.979472 -4.154285 1.394254 -43.139167 -16.272027 4.572834 4.666467 -19.231260 -3.826561 -0.501225 -9.503953 -2.825990 16.553003 4.411800 -1.320713 58.141564 1.306616 19.967063 -6.801724 32.859622 9.938825 11.701426 4.274613 2.116314 
4.783877 99.457626 1.306677 136.536510 -84.574669 -147.152154 -1.495277 -5.800419 -4.606358 -9.734693 -14.820593 27.250504 2.986945 6.855395 -21.534009 8.796162 0.141503 -2.580536 -4.300293 3.898994 -34.902684 2.419771 -6.620648 77.459022 0.113812 -8.485454 -3.275084 5.950925 -0.389003 0.518048 -5.012466 -0.326541 14.176504 3.420433 -2.676931 2.385183 -3.316185 0.309061 -2.573185 -2.178416 7.122264 -0.584719 -1.178844 2.194407 -1.386681 -16.255486 -3.704336 1.434362 -43.049945 -16.105851 4.384608 5.054612 -19.163545 -4.587990 0.493745 -9.260130 -3.702155 16.749731 3.953429 -1.185272 58.090795 0.982889 19.684674 -6.756444 32.601285 9.598622 10.735790 4.278893 1.441918 
4.318546 100.110855 1.027810 136.796465 -84.314716 -147.113408 -1.590489 -5.899222 -3.940269 -9.350874 -15.529222 26.022578 2.036260 6.970429 -19.493885 8.593044 0.145491 -2.343714 -4.149248 3.715119 -32.307735 2.706716 -5.244836 73.331552 0.551815 -8.414176 -4.245984 5.734204 -0.512167 0.471054 -4.804457 -0.143248 13.330392 3.168315 -2.523221 2.319038 -3.318887 0.349315 -2.070120 -2.295261 6.566459 -1.263537 -1.095576 1.996447 -1.653282 -16.641135 -2.593759 1.452025 -43.828464 -15.406724 4.236198 5.822718 -19.749825 -5.699672 1.392496 -8.869750 -4.959306 16.634457 3.547051 -1.082599 58.641694 0.433770 19.618112 -6.210638 32.420692 9.900833 10.724303 3.859891 0.547990 
